<?xml version="1.0" standalone="no"?><!DOCTYPE svg PUBLIC "-//W3C//DTD SVG 1.1//EN" "http://www.w3.org/Graphics/SVG/1.1/DTD/svg11.dtd"><svg t="1553590614599" class="icon" style="" viewBox="0 0 1024 1024" version="1.1" xmlns="http://www.w3.org/2000/svg" p-id="1251" xmlns:xlink="http://www.w3.org/1999/xlink" width="200" height="200"><defs><style type="text/css"></style></defs><path d="M127.585 321.508l361.558-131.679 197.522 542.347-361.558 131.678z" fill="#FA675D" p-id="1252"></path><path d="M399.76 381.64l-80.35 29.27c-70.82 25.79-148.33-5.33-182.91-69.89l-1.6 0.58c28.28 77.66 114.17 117.68 191.82 89.39l80.35-29.27c77.66-28.28 117.68-114.17 89.39-191.82l-1.6 0.58c15.06 71.68-24.28 145.36-95.1 171.16z" fill="#DE5349" p-id="1253"></path><path d="M127.59 321.51c28.28 77.66 114.17 117.68 191.82 89.39l80.35-29.27c77.66-28.28 117.68-114.17 89.39-191.82l-361.56 131.7z" fill="#FF8178" p-id="1254"></path><path d="M528.66 702.09l-101.85 37.1c-48.63 17.71-102.92-7.58-120.63-56.22-17.71-48.63 7.58-102.92 56.22-120.63l101.85-37.1c48.63-17.71 102.92 7.58 120.63 56.22 17.72 48.63-7.58 102.91-56.22 120.63z" fill="#FA8D85" p-id="1255"></path><path d="M392.66 651.46m-25.79 0a25.79 25.79 0 1 0 51.58 0 25.79 25.79 0 1 0-51.58 0Z" fill="#FA6E64" p-id="1256"></path><path d="M489.6 616.16m-25.79 0a25.79 25.79 0 1 0 51.58 0 25.79 25.79 0 1 0-51.58 0Z" fill="#FA6E64" p-id="1257"></path><path d="M519.618 228.745l378.95 66.725L798.48 863.906l-378.95-66.724z" fill="#FA7970" p-id="1258"></path><path d="M725.27 416.92l-84.22-14.83c-74.23-13.07-125.79-78.78-123.46-151.98l-1.67-0.29c-14.33 81.39 40.03 159 121.43 173.33l84.22 14.83c81.39 14.33 159-40.03 173.33-121.43l-1.67-0.29c-22.82 69.59-93.73 113.73-167.96 100.66z" fill="#DE5349" p-id="1259"></path><path d="M519.63 228.76c-14.33 81.39 40.03 159 121.43 173.33l84.22 14.83c81.39 14.33 159-40.03 173.33-121.43l-378.98-66.73z" fill="#FA8D85" p-id="1260"></path><path d="M676.68 758.89l-106.76-18.8c-50.98-8.98-85.34-58.03-76.36-109 8.98-50.98 58.03-85.34 109-76.36l106.76 18.8c50.98 8.98 85.34 58.03 76.36 109-8.98 50.97-58.03 85.34-109 76.36z" fill="#FA9B94" p-id="1261"></path><path d="M584.21 647.05m-25.79 0a25.79 25.79 0 1 0 51.58 0 25.79 25.79 0 1 0-51.58 0Z" fill="#FA6E64" p-id="1262"></path><path d="M685.82 664.94m-25.79 0a25.79 25.79 0 1 0 51.58 0 25.79 25.79 0 1 0-51.58 0Z" fill="#FA6E64" p-id="1263"></path></svg>